<svg height="100%" width="100%" viewBox="0 0 190.61 192.72" xmlns="http://www.w3.org/2000/svg">
  <defs>
    <g id="hex">
      <path d="M95.393 108.48 49.455 81.864l.081-53.092 46.02-26.475 45.937 26.616-.081 53.092z" stroke="none"/>
      <path d="M95.419 109.97 48.092 82.549l.084-54.697L95.586.576l47.328 27.421-.084 54.697z" fill="none"/>
    </g>
  </defs>
  <g fill="#653397" stroke="#653397">
    <use href="#hex" />
    <path fill="#fff"
      d="M71.929 78.805c-6.463-6.463-9.849-15.081-9.849-23.391l33.547 33.24c-8.617-.308-17.235-3.385-23.699-9.849zM103.32 87.731 63.002 47.413c3.385-15.081 16.928-26.469 32.932-26.469 11.388 0 21.236 5.54 27.392 13.85l-4.617 4.001C113.477 31.716 105.167 27.1 95.934 27.1c-12.003 0-22.16 7.694-26.16 18.466l35.393 35.394c8.926-3.078 15.696-10.772 17.851-20.005h-14.773V54.8h21.544c0 16.004-11.388 29.546-26.469 32.932z" />
  </g>
  <g fill="#032147" stroke="#032147">
    <use href="#hex" x="47.25" y="82.1" />
    <use href="#hex" x="-47.5" y="81.95" />
    <path
      d="M148.98 108.08c-10.013-.02-20.065 4.747-25.573 13.116-3.54 5.38-4.932 9.906-5.151 16.752-.11 3.453-.05 4.451.41 6.867.556 2.922 1.508 5.827 2.67 8.146 4.545 9.075 13.542 15.225 23.85 16.302 4.199.439 8.682.028 12.607-1.154 2.767-.834 7.929-3.53 8.582-4.481.224-.326.257-7.294.035-7.516-.086-.087-.791.386-1.566 1.05-1.906 1.631-2.62 2.103-4.96 3.275-4.35 2.18-7.02 2.845-11.366 2.838-10.93-.02-20.48-7.487-23.076-18.04-.793-3.22-.806-9.093-.029-12.286 2.04-8.38 7.843-14.858 15.738-17.573 4.61-1.585 9.668-1.57 14.762.046 3.737 1.185 5.704 2.297 8.93 5.052.776.662 1.481 1.133 1.568 1.046.313-.314.171-7.26-.157-7.668-.436-.544-2.287-1.757-4.073-2.67-4.106-2.097-8.65-3.095-13.2-3.103zM26.93 109.09l.003 19.454c.003 24.121.143 26.112 2.139 30.306 2.543 5.344 7.564 9.103 13.777 10.314 1.194.233 3.078.312 5.891.25 4.663-.106 6.533-.507 9.638-2.072 5.65-2.848 8.98-7.462 10.095-13.988.397-2.327.442-4.675.445-23.354l.003-20.768-6.374-.14-.077 21.09c-.077 20.86-.084 21.11-.63 23.055-1.41 5.02-4.107 7.788-9.268 9.519-4.773 1.6-9.997.642-14.303-2.623-1.95-1.478-3.184-3.397-4.153-6.458-.509-1.604-.527-2.248-.658-23.047l-.135-21.397-3.197-.07z"
      fill="#ea6cb1" />
  </g>
</svg>